<svg width="247" height="26" viewBox="0 0 247 26" fill="none" xmlns="http://www.w3.org/2000/svg">
<path d="M57.8692 13.5223C55.6719 12.605 54.1252 11.6343 53.2292 10.6103C52.3545 9.56501 51.9172 8.29568 51.9172 6.80235C51.9172 4.88234 52.5785 3.34634 53.9012 2.19434C55.2239 1.04234 56.9732 0.466345 59.1492 0.466345C60.3225 0.466345 61.3999 0.605011 62.3812 0.882343C63.3839 1.13834 64.3439 1.55434 65.2612 2.13034V6.32234H65.1972C64.1305 5.57568 63.0745 5.01034 62.0292 4.62634C60.9839 4.24234 59.9812 4.05034 59.0212 4.05034C58.0399 4.05034 57.2612 4.26368 56.6852 4.69034C56.1305 5.11701 55.8532 5.70368 55.8532 6.45034C55.8532 7.19701 56.1305 7.82634 56.6852 8.33834C57.2612 8.82901 58.4559 9.46901 60.2692 10.2583C62.4665 11.197 64.0132 12.189 64.9092 13.2343C65.8052 14.2583 66.2532 15.5277 66.2532 17.0423C66.2532 19.0263 65.5492 20.6263 64.1412 21.8423C62.7332 23.037 60.8879 23.6343 58.6052 23.6343C57.3679 23.6343 56.1839 23.453 55.0532 23.0903C53.9225 22.7277 52.8772 22.1943 51.9172 21.4903L51.1172 16.6263L51.1812 16.5623C52.3972 17.629 53.6772 18.4823 55.0212 19.1223C56.3652 19.741 57.6025 20.0503 58.7332 20.0503C59.8425 20.0503 60.7172 19.8157 61.3572 19.3463C61.9972 18.8557 62.3172 18.1837 62.3172 17.3303C62.3172 16.605 62.0079 15.9757 61.3892 15.4423C60.7919 14.8877 59.6185 14.2477 57.8692 13.5223Z" fill="white"/>
<path d="M82.5274 23.6983C79.1781 23.6983 76.3834 22.589 74.1434 20.3703C71.9034 18.1303 70.7834 15.3677 70.7834 12.0823C70.7834 8.79701 71.9141 6.03434 74.1754 3.79434C76.4581 1.53301 79.2634 0.402344 82.5914 0.402344C85.9408 0.402344 88.7354 1.52234 90.9754 3.76234C93.2368 5.98101 94.3674 8.73301 94.3674 12.0183C94.3674 15.3037 93.2261 18.077 90.9434 20.3383C88.6821 22.5783 85.8768 23.6983 82.5274 23.6983ZM82.4634 4.11434C80.3514 4.11434 78.5594 4.88234 77.0874 6.41834C75.6368 7.93301 74.9114 9.79968 74.9114 12.0183C74.9114 14.2583 75.6474 16.1463 77.1194 17.6823C78.5914 19.2183 80.3941 19.9863 82.5274 19.9863C84.6608 19.9863 86.4741 19.2183 87.9674 17.6823C89.4608 16.1463 90.2074 14.2797 90.2074 12.0823C90.2074 9.86368 89.4501 7.98634 87.9354 6.45034C86.4421 4.89301 84.6181 4.11434 82.4634 4.11434Z" fill="white"/>
<path d="M115.992 0.850344H120.312L109.4 23.6983H107.48L96.8884 0.850344H101.368L108.6 17.2023L115.992 0.850344Z" fill="white"/>
<path d="M138.625 23.2503H125.249V0.850344H138.529L139.489 4.40234H129.281V10.1943H137.793V13.5543H129.281V19.6983H139.585L138.625 23.2503Z" fill="white"/>
<path d="M163.674 23.2503H158.746L151.482 14.6743H149.53V23.2503H145.498V0.850344H152.602C155.034 0.850344 156.965 1.45834 158.394 2.67435C159.823 3.86901 160.538 5.52234 160.538 7.63434C160.538 9.10634 160.101 10.4077 159.226 11.5383C158.373 12.669 157.189 13.4903 155.674 14.0023L163.674 23.2503ZM156.474 7.76234C156.474 6.71701 156.101 5.87434 155.354 5.23434C154.607 4.59434 153.626 4.27434 152.41 4.27434H149.466V11.4103H152.282C153.519 11.4103 154.522 11.0797 155.29 10.4183C156.079 9.73568 156.474 8.85034 156.474 7.76234Z" fill="white"/>
<path d="M180.966 23.2503H167.59V0.850344H180.87L181.83 4.40234H171.622V10.1943H180.134V13.5543H171.622V19.6983H181.926L180.966 23.2503Z" fill="white"/>
<path d="M192.031 23.2503H187.999V0.850344H192.031V23.2503Z" fill="white"/>
<path d="M220.395 11.3143V12.1463C220.395 15.6877 219.392 18.5037 217.387 20.5943C215.381 22.6637 212.693 23.6983 209.323 23.6983C206.016 23.6983 203.296 22.621 201.163 20.4663C199.051 18.3117 197.995 15.549 197.995 12.1783C197.995 8.80768 199.104 6.01301 201.323 3.79434C203.563 1.55434 206.368 0.434343 209.739 0.434343C211.488 0.434343 213.088 0.711677 214.539 1.26634C216.011 1.82101 217.397 2.67434 218.699 3.82634L217.707 7.89034H217.643C216.299 6.61034 214.987 5.68234 213.707 5.10634C212.448 4.50901 211.115 4.21034 209.707 4.21034C207.552 4.21034 205.749 4.97834 204.299 6.51435C202.848 8.05034 202.123 9.94901 202.123 12.2103C202.123 14.5357 202.805 16.4237 204.171 17.8743C205.536 19.325 207.275 20.0503 209.387 20.0503C211.2 20.0503 212.704 19.581 213.899 18.6423C215.093 17.6823 215.861 16.3383 216.203 14.6103H209.259V11.3143H220.395Z" fill="white"/>
<path d="M229.897 23.2503H225.993V0.850344H229.801L242.601 15.3783L242.569 0.850344H246.473V23.3783H244.489L229.865 6.77034L229.897 23.2503Z" fill="white"/>
<path d="M36.9974 6.34646C36.9974 6.34646 34.5038 4.67973 30.9227 4.67973C21.9405 4.67973 16.6535 17.0945 8.5619 17.0945C4.08353 17.0945 0.00665283 13.3583 0.00665283 8.70079C0.00665283 4.04331 3.61989 -0.0015825 9.20044 0.01486C11.202 -0.018575 16.7095 0.01486 16.7095 0.01486L14.2668 4.68595C14.2668 4.68595 11.2015 4.64178 9.20044 4.68595C6.77944 4.69293 4.81377 6.24409 4.81377 8.70079C4.81377 10.9016 6.92849 12.3812 8.5619 12.3858C14.2668 12.3858 19.3705 0.01486 30.3374 0.01486C33.6896 0.01486 36.9974 1.48425 36.9974 1.48425V6.34646Z" fill="url(#paint0_radial_3969_678)"/>
<path d="M3.00254 19.6535C3.00254 19.6535 5.49618 21.3203 9.07732 21.3203C18.0595 21.3203 23.3465 8.90551 31.4381 8.90551C35.9165 8.90551 39.9933 12.6417 39.9933 17.2992C39.9933 21.9567 36.3801 26.0016 30.7995 25.9851C28.798 26.0186 23.2904 25.9851 23.2904 25.9851L25.7332 21.3141C25.7332 21.3141 28.7985 21.3582 30.7995 21.3141C33.2205 21.3071 35.1862 19.7559 35.1862 17.2992C35.1862 15.0984 33.0715 13.6188 31.4381 13.6142C25.7332 13.6142 20.6294 25.9851 9.66254 25.9851C6.31043 25.9851 3.00254 24.5157 3.00254 24.5157L3.00254 19.6535Z" fill="url(#paint1_radial_3969_678)"/>
<defs>
<radialGradient id="paint0_radial_3969_678" cx="0" cy="0" r="1" gradientUnits="userSpaceOnUse" gradientTransform="translate(40.2417 27.6656) rotate(-145.598) scale(53.1491 55.7649)">
<stop stop-color="#107047"/>
<stop offset="0.980586" stop-color="#00E0FF"/>
</radialGradient>
<radialGradient id="paint1_radial_3969_678" cx="0" cy="0" r="1" gradientUnits="userSpaceOnUse" gradientTransform="translate(40.2417 27.6656) rotate(-145.598) scale(53.1491 55.7649)">
<stop stop-color="#107047"/>
<stop offset="0.980586" stop-color="#00E0FF"/>
</radialGradient>
</defs>
</svg>